<svg height="720" viewBox="0 0 720 720" width="720" xmlns="http://www.w3.org/2000/svg"><g fill="none" fill-rule="evenodd"><circle cx="360" cy="360" fill="#f29860" r="360"/><g fill="#fff"><path d="m21.7627417 195 19.4692442 9.648438.1019333-.304688c2.0386643-3.960938 24.056239-45.601563 62.4850618-85.109375 19.163444-19.8046875 42.302284-39 68.601054-53.015625 26.400703-14.015625 55.757469-22.953125 88.579965-23.0546875 33.841828 0 64.115993 9.546875 91.128295 24.375 40.467487 22.140625 73.188049 56.5703125 95.307557 85.6171875 11.110721 14.421875 19.571178 27.523438 25.177505 36.867188 2.85413 4.671875 4.892794 8.429687 6.319859 10.96875l1.528998 2.84375.3058.609375.101933.101562 19.469245-9.648437-19.469245-9.648438-.101933.304688c-2.038664 3.960937-24.056239 45.601562-62.485061 85.109375-19.163445 19.804687-42.302285 39-68.601055 53.015625-26.400703 14.015625-55.757469 22.953125-88.579965 23.054687-33.841828 0-64.115993-9.546875-91.128295-24.375-40.467487-22.140625-73.1880492-56.570312-95.3075572-85.617187-11.1107205-14.523438-19.5711775-27.523438-25.1775044-36.867188-2.85413-4.671875-4.8927943-8.429688-6.3198594-10.96875l-1.5289982-2.84375-.3057996-.609375-.1019333-.101563-19.4692442 9.648438 19.4692442 9.648438-19.4692442-9.648438-19.46924434 9.648438c.6115993 1.117187 23.03690684 46.007812 66.15465734 91.8125 21.5079086 22.851562 48.3163443 46.007812 80.4253073 63.78125 32.108963 17.671874 69.824253 29.757812 112.126538 29.757812 42.200351 0 80.017575-12.085937 112.126538-29.757812 48.214411-26.609376 84.29877-65.304688 108.864675-97.195313 24.463972-31.992188 37.307557-57.484375 37.71529-58.296875 3.057996-6.09375 3.057996-13.304687 0-19.398437-.6116-1.117188-23.036907-46.007813-66.154658-91.8125005-21.507908-22.8515625-48.316344-46.0078125-80.425307-63.78125-32.108963-17.671875-69.926187-29.7578125-112.126538-29.7578125s-80.017575 12.0859375-112.126538 29.7578125c-48.214411 26.609375-84.2987696 65.3046875-108.8646747 97.1953125-24.4639718 31.992187-37.30755707 57.484375-37.71528994 58.296875-3.05799648 6.09375-3.05799648 13.304688 0 19.398438z" fill-rule="nonzero" transform="translate(100 165)"/><g transform="translate(264.535156 256.878906)"><path d="m.5 53.2366648 94.5-53.2366648 94.5 54-94.5 54z" fill-opacity=".8"/><path d="m0 60.1489362 92 53.0736838v91.926316l-92-53.073683z" fill-opacity=".6"/><path d="m98 60.1489362 92 53.0736838v91.926316l-92-53.073683z" fill-opacity=".4" transform="matrix(-1 0 0 1 288 0)"/></g></g></g></svg>